<svg xmlns="http://www.w3.org/2000/svg" data-name="Layer 1" viewBox="0 0 100 125" x="0px" y="0px"><defs><style>.cls-1{fill-rule:evenodd;}</style></defs><title>a</title><path class="cls-1" d="M24.507,82.314l17.615-8.846L29.6,63.272,24.507,82.314ZM83.7,25.883l-.44-.359h0l0,0L67.772,12.915a1.323,1.323,0,0,0-1.848.188l-4.36,5.354a1.323,1.323,0,0,0,.189,1.847l.441.359h0L77.679,33.272a1.323,1.323,0,0,0,1.848-.188l4.359-5.354a1.321,1.321,0,0,0-.188-1.847ZM67.574,27.755l-31.2,38.32-5.891-4.8,31.2-38.319,5.891,4.8ZM75.1,33.879,43.893,72.2,38,67.4,69.2,29.083l5.891,4.8ZM70.356,12.307l4.364-5.36a5.269,5.269,0,0,1,2.9-1.858,3.016,3.016,0,0,1,2.584.5L88.35,12.22a3.018,3.018,0,0,1,1.016,2.428,5.256,5.256,0,0,1-1.235,3.221l-4.363,5.359L70.356,12.307ZM9.583,95a1.055,1.055,0,1,1,0-2.109H90.417a1.055,1.055,0,1,1,0,2.109Z"/><text x="0" y="115" fill="#000000" font-size="5px" font-weight="bold" font-family="'Helvetica Neue', Helvetica, Arial-Unicode, Arial, Sans-serif">Created by Happy Girl</text><text x="0" y="120" fill="#000000" font-size="5px" font-weight="bold" font-family="'Helvetica Neue', Helvetica, Arial-Unicode, Arial, Sans-serif">from the Noun Project</text></svg>